<mxfile host="app.diagrams.net" modified="2024-09-18T16:09:12.606Z" agent="Mozilla/5.0 (Windows NT 10.0; Win64; x64; rv:130.0) Gecko/20100101 Firefox/130.0" etag="S3az9iFRk3Gg0qJ3DSEy" version="24.6.5" type="device">
  <diagram name="Страница — 1" id="zXiqC_V_nPHIu1OuLMWh">
    <mxGraphModel dx="794" dy="627" grid="1" gridSize="10" guides="1" tooltips="1" connect="1" arrows="1" fold="1" page="1" pageScale="1" pageWidth="827" pageHeight="1169" math="0" shadow="0">
      <root>
        <mxCell id="0" />
        <mxCell id="1" parent="0" />
        <mxCell id="WXnupK0CZJY66pMkVa3G-1" value="Пользователь" style="shape=umlActor;verticalLabelPosition=bottom;verticalAlign=top;html=1;outlineConnect=0;fillColor=#d5e8d4;strokeColor=#82b366;" vertex="1" parent="1">
          <mxGeometry x="340" y="20" width="30" height="60" as="geometry" />
        </mxCell>
        <mxCell id="WXnupK0CZJY66pMkVa3G-4" value="&lt;div&gt;Регистрация&lt;/div&gt;" style="swimlane;whiteSpace=wrap;html=1;fillColor=#fff2cc;strokeColor=#d6b656;" vertex="1" parent="1">
          <mxGeometry x="60" y="20" width="160" height="230" as="geometry" />
        </mxCell>
        <mxCell id="WXnupK0CZJY66pMkVa3G-24" value="Форма регистрации" style="swimlane;whiteSpace=wrap;html=1;fillColor=#fff2cc;strokeColor=#d6b656;" vertex="1" parent="WXnupK0CZJY66pMkVa3G-4">
          <mxGeometry x="10" y="40" width="130" height="80" as="geometry" />
        </mxCell>
        <mxCell id="WXnupK0CZJY66pMkVa3G-27" value="Контроллер для регистрации" style="swimlane;whiteSpace=wrap;html=1;startSize=30;fillColor=#fff2cc;strokeColor=#d6b656;" vertex="1" parent="WXnupK0CZJY66pMkVa3G-4">
          <mxGeometry x="10" y="130" width="130" height="80" as="geometry" />
        </mxCell>
        <mxCell id="WXnupK0CZJY66pMkVa3G-6" value="&lt;div&gt;Авторизация&lt;/div&gt;" style="swimlane;whiteSpace=wrap;html=1;fillColor=#f8cecc;strokeColor=#b85450;" vertex="1" parent="1">
          <mxGeometry x="60" y="260" width="160" height="230" as="geometry" />
        </mxCell>
        <mxCell id="WXnupK0CZJY66pMkVa3G-28" value="Форма авторизации" style="swimlane;whiteSpace=wrap;html=1;fillColor=#f8cecc;strokeColor=#b85450;" vertex="1" parent="WXnupK0CZJY66pMkVa3G-6">
          <mxGeometry x="15" y="40" width="130" height="80" as="geometry" />
        </mxCell>
        <mxCell id="WXnupK0CZJY66pMkVa3G-29" value="Контроллер для авторизации" style="swimlane;whiteSpace=wrap;html=1;startSize=30;fillColor=#f8cecc;strokeColor=#b85450;" vertex="1" parent="WXnupK0CZJY66pMkVa3G-6">
          <mxGeometry x="15" y="130" width="130" height="80" as="geometry" />
        </mxCell>
        <mxCell id="WXnupK0CZJY66pMkVa3G-9" value="" style="edgeStyle=orthogonalEdgeStyle;rounded=0;orthogonalLoop=1;jettySize=auto;html=1;" edge="1" parent="1" source="WXnupK0CZJY66pMkVa3G-7" target="WXnupK0CZJY66pMkVa3G-8">
          <mxGeometry relative="1" as="geometry">
            <Array as="points">
              <mxPoint x="470" y="295" />
              <mxPoint x="470" y="40" />
            </Array>
          </mxGeometry>
        </mxCell>
        <mxCell id="WXnupK0CZJY66pMkVa3G-19" style="edgeStyle=orthogonalEdgeStyle;rounded=0;orthogonalLoop=1;jettySize=auto;html=1;exitX=0.25;exitY=1;exitDx=0;exitDy=0;entryX=1;entryY=0.5;entryDx=0;entryDy=0;" edge="1" parent="1" source="WXnupK0CZJY66pMkVa3G-7" target="WXnupK0CZJY66pMkVa3G-16">
          <mxGeometry relative="1" as="geometry" />
        </mxCell>
        <mxCell id="WXnupK0CZJY66pMkVa3G-7" value="Личный кабинет" style="swimlane;whiteSpace=wrap;html=1;fillColor=#dae8fc;strokeColor=#6c8ebf;" vertex="1" parent="1">
          <mxGeometry x="274" y="220" width="140" height="150" as="geometry" />
        </mxCell>
        <mxCell id="WXnupK0CZJY66pMkVa3G-37" value="&lt;div&gt;Управление счётом:&lt;/div&gt;&lt;div&gt;1. Создание&lt;/div&gt;&lt;div&gt;2. Пополнение&lt;/div&gt;&lt;div&gt;3. Переводы&lt;/div&gt;&lt;div&gt;4. Закрытие счёта&lt;br&gt;&lt;/div&gt;" style="text;html=1;align=left;verticalAlign=middle;whiteSpace=wrap;rounded=0;" vertex="1" parent="WXnupK0CZJY66pMkVa3G-7">
          <mxGeometry x="5" y="30" width="130" height="100" as="geometry" />
        </mxCell>
        <mxCell id="WXnupK0CZJY66pMkVa3G-8" value="Создание счёта" style="swimlane;whiteSpace=wrap;html=1;fillColor=#dae8fc;strokeColor=#6c8ebf;" vertex="1" parent="1">
          <mxGeometry x="510" y="10" width="230" height="140" as="geometry" />
        </mxCell>
        <mxCell id="WXnupK0CZJY66pMkVa3G-30" value="Форма создания" style="swimlane;whiteSpace=wrap;html=1;startSize=23;" vertex="1" parent="WXnupK0CZJY66pMkVa3G-8">
          <mxGeometry x="20" y="50" width="180" height="60" as="geometry" />
        </mxCell>
        <mxCell id="WXnupK0CZJY66pMkVa3G-10" value="Пополнение счёта" style="swimlane;whiteSpace=wrap;html=1;fillColor=#dae8fc;strokeColor=#6c8ebf;" vertex="1" parent="1">
          <mxGeometry x="510" y="190" width="220" height="100" as="geometry" />
        </mxCell>
        <mxCell id="WXnupK0CZJY66pMkVa3G-32" value="Форма пополнения" style="swimlane;whiteSpace=wrap;html=1;startSize=23;" vertex="1" parent="WXnupK0CZJY66pMkVa3G-10">
          <mxGeometry x="20" y="30" width="180" height="60" as="geometry" />
        </mxCell>
        <mxCell id="WXnupK0CZJY66pMkVa3G-11" value="" style="endArrow=classic;html=1;rounded=0;entryX=0;entryY=0.5;entryDx=0;entryDy=0;exitX=1;exitY=0.75;exitDx=0;exitDy=0;" edge="1" parent="1" source="WXnupK0CZJY66pMkVa3G-7" target="WXnupK0CZJY66pMkVa3G-10">
          <mxGeometry width="50" height="50" relative="1" as="geometry">
            <mxPoint x="380" y="350" as="sourcePoint" />
            <mxPoint x="430" y="300" as="targetPoint" />
            <Array as="points">
              <mxPoint x="480" y="330" />
              <mxPoint x="480" y="240" />
            </Array>
          </mxGeometry>
        </mxCell>
        <mxCell id="WXnupK0CZJY66pMkVa3G-12" value="Перевод между счётами" style="swimlane;whiteSpace=wrap;html=1;startSize=30;fillColor=#dae8fc;strokeColor=#6c8ebf;" vertex="1" parent="1">
          <mxGeometry x="510" y="310" width="220" height="120" as="geometry" />
        </mxCell>
        <mxCell id="WXnupK0CZJY66pMkVa3G-34" value="Форма перевода" style="swimlane;whiteSpace=wrap;html=1;startSize=23;" vertex="1" parent="WXnupK0CZJY66pMkVa3G-12">
          <mxGeometry x="20" y="40" width="180" height="60" as="geometry" />
        </mxCell>
        <mxCell id="WXnupK0CZJY66pMkVa3G-13" value="" style="endArrow=classic;html=1;rounded=0;entryX=0;entryY=0.5;entryDx=0;entryDy=0;exitX=0.75;exitY=1;exitDx=0;exitDy=0;" edge="1" parent="1" target="WXnupK0CZJY66pMkVa3G-12" source="WXnupK0CZJY66pMkVa3G-7">
          <mxGeometry width="50" height="50" relative="1" as="geometry">
            <mxPoint x="250" y="433" as="sourcePoint" />
            <mxPoint x="266" y="400" as="targetPoint" />
            <Array as="points">
              <mxPoint x="379" y="400" />
            </Array>
          </mxGeometry>
        </mxCell>
        <mxCell id="WXnupK0CZJY66pMkVa3G-14" value="Перевод между пользователями" style="swimlane;whiteSpace=wrap;html=1;startSize=30;fillColor=#dae8fc;strokeColor=#6c8ebf;" vertex="1" parent="1">
          <mxGeometry x="510" y="450" width="230" height="130" as="geometry" />
        </mxCell>
        <mxCell id="WXnupK0CZJY66pMkVa3G-35" value="Форма перевода другому пользователю" style="swimlane;whiteSpace=wrap;html=1;startSize=40;" vertex="1" parent="WXnupK0CZJY66pMkVa3G-14">
          <mxGeometry x="20" y="40" width="180" height="70" as="geometry" />
        </mxCell>
        <mxCell id="WXnupK0CZJY66pMkVa3G-15" value="" style="endArrow=classic;html=1;rounded=0;entryX=0;entryY=0.5;entryDx=0;entryDy=0;exitX=0.5;exitY=1;exitDx=0;exitDy=0;" edge="1" parent="1" target="WXnupK0CZJY66pMkVa3G-14" source="WXnupK0CZJY66pMkVa3G-7">
          <mxGeometry width="50" height="50" relative="1" as="geometry">
            <mxPoint x="234" y="433" as="sourcePoint" />
            <mxPoint x="250" y="400" as="targetPoint" />
            <Array as="points">
              <mxPoint x="344" y="510" />
            </Array>
          </mxGeometry>
        </mxCell>
        <mxCell id="WXnupK0CZJY66pMkVa3G-16" value="Закрытие счёта" style="swimlane;whiteSpace=wrap;html=1;fillColor=#dae8fc;strokeColor=#6c8ebf;" vertex="1" parent="1">
          <mxGeometry x="120" y="540" width="190" height="125" as="geometry" />
        </mxCell>
        <mxCell id="WXnupK0CZJY66pMkVa3G-36" value="Форма закрытия счёта" style="swimlane;whiteSpace=wrap;html=1;startSize=23;" vertex="1" parent="WXnupK0CZJY66pMkVa3G-16">
          <mxGeometry x="10" y="40" width="160" height="60" as="geometry" />
        </mxCell>
        <mxCell id="WXnupK0CZJY66pMkVa3G-20" value="" style="shape=flexArrow;endArrow=classic;html=1;rounded=0;" edge="1" parent="1">
          <mxGeometry width="50" height="50" relative="1" as="geometry">
            <mxPoint x="320" y="90" as="sourcePoint" />
            <mxPoint x="260" y="130" as="targetPoint" />
          </mxGeometry>
        </mxCell>
        <mxCell id="WXnupK0CZJY66pMkVa3G-21" value="" style="shape=flexArrow;endArrow=classic;html=1;rounded=0;" edge="1" parent="1">
          <mxGeometry width="50" height="50" relative="1" as="geometry">
            <mxPoint x="330" y="100" as="sourcePoint" />
            <mxPoint x="250" y="210" as="targetPoint" />
            <Array as="points" />
          </mxGeometry>
        </mxCell>
        <mxCell id="WXnupK0CZJY66pMkVa3G-22" value="" style="shape=flexArrow;endArrow=classic;html=1;rounded=0;" edge="1" parent="1">
          <mxGeometry width="50" height="50" relative="1" as="geometry">
            <mxPoint x="350" y="120" as="sourcePoint" />
            <mxPoint x="350" y="200" as="targetPoint" />
          </mxGeometry>
        </mxCell>
      </root>
    </mxGraphModel>
  </diagram>
</mxfile>
